<svg xmlns="http://www.w3.org/2000/svg" xmlns:xlink="http://www.w3.org/1999/xlink" width="340" zoomAndPan="magnify" viewBox="0 0 255 56.249996" height="75" preserveAspectRatio="xMidYMid meet" version="1.0"><defs><g/></defs><g fill="#000000" fill-opacity="1"><g transform="translate(14.052638, 34.282889)"><g><path d="M 0.703125 -23.6875 L 3.453125 -23.6875 C 4.148438 -23.6875 4.914062 -23.722656 5.75 -23.796875 C 6.59375 -23.878906 7.429688 -23.957031 8.265625 -24.03125 C 9.097656 -24.113281 9.863281 -24.15625 10.5625 -24.15625 C 11.394531 -24.15625 12.195312 -24.082031 12.96875 -23.9375 C 13.738281 -23.800781 14.421875 -23.5625 15.015625 -23.21875 C 15.617188 -22.882812 16.09375 -22.441406 16.4375 -21.890625 C 16.78125 -21.335938 16.953125 -20.640625 16.953125 -19.796875 C 16.953125 -18.910156 16.757812 -18.148438 16.375 -17.515625 C 15.988281 -16.890625 15.472656 -16.351562 14.828125 -15.90625 C 14.191406 -15.457031 13.492188 -15.070312 12.734375 -14.75 C 11.984375 -14.4375 11.226562 -14.15625 10.46875 -13.90625 C 9.707031 -13.65625 9.007812 -13.414062 8.375 -13.1875 C 7.738281 -12.957031 7.222656 -12.707031 6.828125 -12.4375 C 6.441406 -12.164062 6.25 -11.84375 6.25 -11.46875 C 6.25 -11.195312 6.328125 -11.023438 6.484375 -10.953125 C 6.648438 -10.878906 6.800781 -10.84375 6.9375 -10.84375 C 7.269531 -10.84375 7.675781 -10.960938 8.15625 -11.203125 C 8.644531 -11.453125 9.195312 -11.695312 9.8125 -11.9375 C 10.425781 -12.175781 11.113281 -12.296875 11.875 -12.296875 C 13.082031 -12.296875 14.179688 -12.050781 15.171875 -11.5625 C 16.171875 -11.070312 16.96875 -10.382812 17.5625 -9.5 C 18.15625 -8.613281 18.453125 -7.570312 18.453125 -6.375 C 18.453125 -5.007812 18.144531 -3.8125 17.53125 -2.78125 C 16.925781 -1.75 16.039062 -0.945312 14.875 -0.375 C 13.707031 0.1875 12.28125 0.46875 10.59375 0.46875 C 9.675781 0.46875 8.847656 0.425781 8.109375 0.34375 C 7.378906 0.269531 6.65625 0.191406 5.9375 0.109375 C 5.21875 0.0351562 4.421875 0 3.546875 0 L 0.703125 0 L 0.703125 -0.234375 C 1.390625 -0.234375 1.882812 -0.4375 2.1875 -0.84375 C 2.5 -1.257812 2.691406 -1.929688 2.765625 -2.859375 C 2.847656 -3.796875 2.890625 -5.035156 2.890625 -6.578125 L 2.890625 -17.109375 C 2.890625 -18.671875 2.847656 -19.910156 2.765625 -20.828125 C 2.691406 -21.753906 2.5 -22.421875 2.1875 -22.828125 C 1.882812 -23.242188 1.390625 -23.453125 0.703125 -23.453125 Z M 4.90625 -23.171875 L 4.90625 -0.609375 C 5.632812 -0.359375 6.320312 -0.171875 6.96875 -0.046875 C 7.613281 0.078125 8.367188 0.140625 9.234375 0.140625 C 10.703125 0.140625 11.972656 -0.113281 13.046875 -0.625 C 14.117188 -1.132812 14.945312 -1.863281 15.53125 -2.8125 C 16.125 -3.757812 16.421875 -4.890625 16.421875 -6.203125 C 16.421875 -6.910156 16.320312 -7.609375 16.125 -8.296875 C 15.925781 -8.984375 15.628906 -9.609375 15.234375 -10.171875 C 14.847656 -10.742188 14.367188 -11.195312 13.796875 -11.53125 C 13.234375 -11.863281 12.582031 -12.03125 11.84375 -12.03125 C 11.175781 -12.03125 10.550781 -11.910156 9.96875 -11.671875 C 9.382812 -11.441406 8.835938 -11.207031 8.328125 -10.96875 C 7.816406 -10.726562 7.320312 -10.609375 6.84375 -10.609375 C 6.632812 -10.609375 6.441406 -10.671875 6.265625 -10.796875 C 6.097656 -10.921875 6.015625 -11.128906 6.015625 -11.421875 C 6.015625 -11.941406 6.226562 -12.398438 6.65625 -12.796875 C 7.082031 -13.191406 7.632812 -13.5625 8.3125 -13.90625 C 8.988281 -14.25 9.707031 -14.597656 10.46875 -14.953125 C 11.226562 -15.304688 11.945312 -15.703125 12.625 -16.140625 C 13.300781 -16.585938 13.851562 -17.101562 14.28125 -17.6875 C 14.707031 -18.28125 14.921875 -18.96875 14.921875 -19.75 C 14.921875 -20.726562 14.644531 -21.519531 14.09375 -22.125 C 13.539062 -22.726562 12.828125 -23.160156 11.953125 -23.421875 C 11.078125 -23.691406 10.15625 -23.828125 9.1875 -23.828125 C 8.414062 -23.828125 7.679688 -23.769531 6.984375 -23.65625 C 6.296875 -23.550781 5.601562 -23.390625 4.90625 -23.171875 Z M 4.90625 -23.171875 "/></g></g></g><g fill="#000000" fill-opacity="1"><g transform="translate(36.292149, 34.282889)"><g><path d="M 0.703125 -23.453125 L 0.703125 -23.6875 L 17.671875 -23.6875 L 17.671875 -20.484375 L 17.4375 -20.484375 L 17.4375 -20.578125 C 17.4375 -21.367188 16.6875 -22.046875 15.1875 -22.609375 C 13.695312 -23.171875 11.585938 -23.453125 8.859375 -23.453125 L 4.921875 -23.453125 L 4.921875 -13.265625 C 5.285156 -13.609375 5.703125 -13.875 6.171875 -14.0625 C 6.640625 -14.257812 7.140625 -14.359375 7.671875 -14.359375 C 8.253906 -14.359375 8.785156 -14.28125 9.265625 -14.125 C 9.753906 -13.976562 10.210938 -13.8125 10.640625 -13.625 C 11.078125 -13.4375 11.515625 -13.265625 11.953125 -13.109375 C 12.398438 -12.960938 12.882812 -12.890625 13.40625 -12.890625 C 13.863281 -12.890625 14.269531 -13.007812 14.625 -13.25 C 14.976562 -13.5 15.15625 -13.828125 15.15625 -14.234375 L 15.390625 -14.234375 C 15.390625 -13.535156 15.117188 -12.925781 14.578125 -12.40625 C 14.035156 -11.882812 13.296875 -11.625 12.359375 -11.625 C 11.640625 -11.625 11.007812 -11.726562 10.46875 -11.9375 C 9.9375 -12.144531 9.457031 -12.378906 9.03125 -12.640625 C 8.601562 -12.910156 8.191406 -13.148438 7.796875 -13.359375 C 7.410156 -13.578125 7.003906 -13.695312 6.578125 -13.71875 C 6.234375 -13.726562 5.921875 -13.65625 5.640625 -13.5 C 5.359375 -13.34375 5.117188 -13.140625 4.921875 -12.890625 L 4.921875 -0.234375 L 7.953125 -0.234375 C 8.335938 -0.234375 8.832031 -0.242188 9.4375 -0.265625 C 10.039062 -0.296875 10.695312 -0.347656 11.40625 -0.421875 C 12.125 -0.503906 12.832031 -0.628906 13.53125 -0.796875 C 14.238281 -0.960938 14.890625 -1.175781 15.484375 -1.4375 C 16.078125 -1.707031 16.550781 -2.046875 16.90625 -2.453125 C 17.257812 -2.859375 17.4375 -3.34375 17.4375 -3.90625 L 17.671875 -3.90625 L 17.671875 0 L 0.703125 0 L 0.703125 -0.234375 C 1.390625 -0.234375 1.882812 -0.4375 2.1875 -0.84375 C 2.5 -1.257812 2.691406 -1.929688 2.765625 -2.859375 C 2.847656 -3.796875 2.890625 -5.035156 2.890625 -6.578125 L 2.890625 -17.109375 C 2.890625 -18.671875 2.847656 -19.910156 2.765625 -20.828125 C 2.691406 -21.753906 2.5 -22.421875 2.1875 -22.828125 C 1.882812 -23.242188 1.390625 -23.453125 0.703125 -23.453125 Z M 0.703125 -23.453125 "/></g></g></g><g fill="#000000" fill-opacity="1"><g transform="translate(57.03955, 34.282889)"><g><path d="M 0.703125 -23.453125 L 0.703125 -23.6875 L 7.109375 -23.6875 L 7.109375 -23.453125 C 6.429688 -23.453125 5.9375 -23.242188 5.625 -22.828125 C 5.3125 -22.421875 5.113281 -21.753906 5.03125 -20.828125 C 4.957031 -19.910156 4.921875 -18.671875 4.921875 -17.109375 L 4.921875 -6.578125 C 4.921875 -5.035156 4.957031 -3.796875 5.03125 -2.859375 C 5.113281 -1.929688 5.3125 -1.257812 5.625 -0.84375 C 5.9375 -0.4375 6.429688 -0.234375 7.109375 -0.234375 L 7.109375 0 L 0.703125 0 L 0.703125 -0.234375 C 1.390625 -0.234375 1.882812 -0.4375 2.1875 -0.84375 C 2.5 -1.257812 2.691406 -1.929688 2.765625 -2.859375 C 2.847656 -3.796875 2.890625 -5.035156 2.890625 -6.578125 L 2.890625 -17.109375 C 2.890625 -18.671875 2.847656 -19.910156 2.765625 -20.828125 C 2.691406 -21.753906 2.5 -22.421875 2.1875 -22.828125 C 1.882812 -23.242188 1.390625 -23.453125 0.703125 -23.453125 Z M 0.703125 -23.453125 "/></g></g></g><g fill="#000000" fill-opacity="1"><g transform="translate(67.223778, 34.282889)"><g><path d="M 1.421875 -11.84375 C 1.421875 -13.625 1.6875 -15.257812 2.21875 -16.75 C 2.757812 -18.25 3.507812 -19.554688 4.46875 -20.671875 C 5.4375 -21.785156 6.5625 -22.644531 7.84375 -23.25 C 9.125 -23.851562 10.5 -24.15625 11.96875 -24.15625 C 13.414062 -24.15625 14.671875 -24.050781 15.734375 -23.84375 C 16.804688 -23.644531 17.800781 -23.390625 18.71875 -23.078125 L 18.71875 -19.890625 L 18.46875 -19.890625 C 18.46875 -19.890625 18.40625 -20.023438 18.28125 -20.296875 C 18.15625 -20.566406 17.941406 -20.898438 17.640625 -21.296875 C 17.347656 -21.691406 16.953125 -22.085938 16.453125 -22.484375 C 15.953125 -22.878906 15.332031 -23.207031 14.59375 -23.46875 C 13.851562 -23.738281 12.976562 -23.875 11.96875 -23.875 C 10.726562 -23.875 9.59375 -23.570312 8.5625 -22.96875 C 7.539062 -22.375 6.65625 -21.535156 5.90625 -20.453125 C 5.15625 -19.367188 4.570312 -18.097656 4.15625 -16.640625 C 3.75 -15.179688 3.546875 -13.582031 3.546875 -11.84375 C 3.546875 -10.125 3.765625 -8.53125 4.203125 -7.0625 C 4.648438 -5.59375 5.257812 -4.316406 6.03125 -3.234375 C 6.8125 -2.148438 7.707031 -1.304688 8.71875 -0.703125 C 9.738281 -0.109375 10.820312 0.1875 11.96875 0.1875 C 13.007812 0.1875 13.90625 0 14.65625 -0.375 C 15.40625 -0.757812 16.023438 -1.210938 16.515625 -1.734375 C 17.003906 -2.253906 17.363281 -2.757812 17.59375 -3.25 C 17.820312 -3.738281 17.9375 -4.082031 17.9375 -4.28125 L 17.9375 -7.625 C 17.9375 -8.5625 17.769531 -9.296875 17.4375 -9.828125 C 17.113281 -10.367188 16.679688 -10.765625 16.140625 -11.015625 C 15.609375 -11.265625 15.007812 -11.425781 14.34375 -11.5 C 13.675781 -11.570312 12.988281 -11.597656 12.28125 -11.578125 C 11.582031 -11.566406 10.914062 -11.5625 10.28125 -11.5625 C 9.707031 -11.5625 9.1875 -11.59375 8.71875 -11.65625 C 8.257812 -11.726562 7.890625 -11.882812 7.609375 -12.125 C 7.335938 -12.363281 7.203125 -12.710938 7.203125 -13.171875 C 7.203125 -13.847656 7.398438 -14.398438 7.796875 -14.828125 C 8.203125 -15.265625 8.6875 -15.59375 9.25 -15.8125 C 9.8125 -16.039062 10.328125 -16.15625 10.796875 -16.15625 C 11.679688 -16.15625 12.484375 -16.046875 13.203125 -15.828125 C 13.921875 -15.617188 14.597656 -15.367188 15.234375 -15.078125 C 15.878906 -14.785156 16.53125 -14.53125 17.1875 -14.3125 C 17.851562 -14.101562 18.566406 -14 19.328125 -14 C 19.878906 -14 20.273438 -14.054688 20.515625 -14.171875 C 20.765625 -14.296875 20.914062 -14.414062 20.96875 -14.53125 C 21.03125 -14.644531 21.0625 -14.703125 21.0625 -14.703125 C 21.1875 -14.210938 21.144531 -13.796875 20.9375 -13.453125 C 20.726562 -13.109375 20.421875 -12.84375 20.015625 -12.65625 C 19.609375 -12.476562 19.160156 -12.390625 18.671875 -12.390625 C 17.953125 -12.390625 17.222656 -12.503906 16.484375 -12.734375 C 15.742188 -12.960938 15.007812 -13.222656 14.28125 -13.515625 C 13.550781 -13.816406 12.847656 -14.082031 12.171875 -14.3125 C 11.492188 -14.539062 10.863281 -14.65625 10.28125 -14.65625 C 9.550781 -14.65625 8.898438 -14.523438 8.328125 -14.265625 C 7.753906 -14.003906 7.46875 -13.597656 7.46875 -13.046875 C 7.46875 -12.648438 7.628906 -12.363281 7.953125 -12.1875 C 8.273438 -12.007812 8.710938 -11.898438 9.265625 -11.859375 C 9.828125 -11.816406 10.457031 -11.800781 11.15625 -11.8125 C 11.863281 -11.832031 12.59375 -11.84375 13.34375 -11.84375 C 14.144531 -11.84375 14.9375 -11.796875 15.71875 -11.703125 C 16.507812 -11.617188 17.222656 -11.4375 17.859375 -11.15625 C 18.503906 -10.875 19.015625 -10.453125 19.390625 -9.890625 C 19.773438 -9.328125 19.96875 -8.570312 19.96875 -7.625 L 19.96875 -4.21875 C 19.070312 -2.726562 17.9375 -1.570312 16.5625 -0.75 C 15.1875 0.0625 13.65625 0.46875 11.96875 0.46875 C 10.5 0.46875 9.125 0.164062 7.84375 -0.4375 C 6.5625 -1.039062 5.4375 -1.898438 4.46875 -3.015625 C 3.507812 -4.128906 2.757812 -5.4375 2.21875 -6.9375 C 1.6875 -8.4375 1.421875 -10.070312 1.421875 -11.84375 Z M 1.421875 -11.84375 "/></g></g></g><g fill="#000000" fill-opacity="1"><g transform="translate(91.405403, 34.282889)"><g><path d="M 0.703125 -23.453125 L 0.703125 -23.6875 L 17.671875 -23.6875 L 17.671875 -20.484375 L 17.4375 -20.484375 L 17.4375 -20.578125 C 17.4375 -21.367188 16.6875 -22.046875 15.1875 -22.609375 C 13.695312 -23.171875 11.585938 -23.453125 8.859375 -23.453125 L 4.921875 -23.453125 L 4.921875 -13.265625 C 5.285156 -13.609375 5.703125 -13.875 6.171875 -14.0625 C 6.640625 -14.257812 7.140625 -14.359375 7.671875 -14.359375 C 8.253906 -14.359375 8.785156 -14.28125 9.265625 -14.125 C 9.753906 -13.976562 10.210938 -13.8125 10.640625 -13.625 C 11.078125 -13.4375 11.515625 -13.265625 11.953125 -13.109375 C 12.398438 -12.960938 12.882812 -12.890625 13.40625 -12.890625 C 13.863281 -12.890625 14.269531 -13.007812 14.625 -13.25 C 14.976562 -13.5 15.15625 -13.828125 15.15625 -14.234375 L 15.390625 -14.234375 C 15.390625 -13.535156 15.117188 -12.925781 14.578125 -12.40625 C 14.035156 -11.882812 13.296875 -11.625 12.359375 -11.625 C 11.640625 -11.625 11.007812 -11.726562 10.46875 -11.9375 C 9.9375 -12.144531 9.457031 -12.378906 9.03125 -12.640625 C 8.601562 -12.910156 8.191406 -13.148438 7.796875 -13.359375 C 7.410156 -13.578125 7.003906 -13.695312 6.578125 -13.71875 C 6.234375 -13.726562 5.921875 -13.65625 5.640625 -13.5 C 5.359375 -13.34375 5.117188 -13.140625 4.921875 -12.890625 L 4.921875 -0.234375 L 7.953125 -0.234375 C 8.335938 -0.234375 8.832031 -0.242188 9.4375 -0.265625 C 10.039062 -0.296875 10.695312 -0.347656 11.40625 -0.421875 C 12.125 -0.503906 12.832031 -0.628906 13.53125 -0.796875 C 14.238281 -0.960938 14.890625 -1.175781 15.484375 -1.4375 C 16.078125 -1.707031 16.550781 -2.046875 16.90625 -2.453125 C 17.257812 -2.859375 17.4375 -3.34375 17.4375 -3.90625 L 17.671875 -3.90625 L 17.671875 0 L 0.703125 0 L 0.703125 -0.234375 C 1.390625 -0.234375 1.882812 -0.4375 2.1875 -0.84375 C 2.5 -1.257812 2.691406 -1.929688 2.765625 -2.859375 C 2.847656 -3.796875 2.890625 -5.035156 2.890625 -6.578125 L 2.890625 -17.109375 C 2.890625 -18.671875 2.847656 -19.910156 2.765625 -20.828125 C 2.691406 -21.753906 2.5 -22.421875 2.1875 -22.828125 C 1.882812 -23.242188 1.390625 -23.453125 0.703125 -23.453125 Z M 0.703125 -23.453125 "/></g></g></g><g fill="#000000" fill-opacity="1"><g transform="translate(112.152801, 34.282889)"><g/></g></g><g fill="#000000" fill-opacity="1"><g transform="translate(122.810713, 34.282889)"><g><path d="M 0.703125 -23.6875 L 3.453125 -23.6875 C 4.148438 -23.6875 4.914062 -23.722656 5.75 -23.796875 C 6.59375 -23.878906 7.429688 -23.957031 8.265625 -24.03125 C 9.097656 -24.113281 9.863281 -24.15625 10.5625 -24.15625 C 11.394531 -24.15625 12.195312 -24.082031 12.96875 -23.9375 C 13.738281 -23.800781 14.421875 -23.5625 15.015625 -23.21875 C 15.617188 -22.882812 16.09375 -22.441406 16.4375 -21.890625 C 16.78125 -21.335938 16.953125 -20.640625 16.953125 -19.796875 C 16.953125 -18.910156 16.757812 -18.148438 16.375 -17.515625 C 15.988281 -16.890625 15.472656 -16.351562 14.828125 -15.90625 C 14.191406 -15.457031 13.492188 -15.070312 12.734375 -14.75 C 11.984375 -14.4375 11.226562 -14.15625 10.46875 -13.90625 C 9.707031 -13.65625 9.007812 -13.414062 8.375 -13.1875 C 7.738281 -12.957031 7.222656 -12.707031 6.828125 -12.4375 C 6.441406 -12.164062 6.25 -11.84375 6.25 -11.46875 C 6.25 -11.195312 6.328125 -11.023438 6.484375 -10.953125 C 6.648438 -10.878906 6.800781 -10.84375 6.9375 -10.84375 C 7.269531 -10.84375 7.675781 -10.960938 8.15625 -11.203125 C 8.644531 -11.453125 9.195312 -11.695312 9.8125 -11.9375 C 10.425781 -12.175781 11.113281 -12.296875 11.875 -12.296875 C 13.082031 -12.296875 14.179688 -12.050781 15.171875 -11.5625 C 16.171875 -11.070312 16.96875 -10.382812 17.5625 -9.5 C 18.15625 -8.613281 18.453125 -7.570312 18.453125 -6.375 C 18.453125 -5.007812 18.144531 -3.8125 17.53125 -2.78125 C 16.925781 -1.75 16.039062 -0.945312 14.875 -0.375 C 13.707031 0.1875 12.28125 0.46875 10.59375 0.46875 C 9.675781 0.46875 8.847656 0.425781 8.109375 0.34375 C 7.378906 0.269531 6.65625 0.191406 5.9375 0.109375 C 5.21875 0.0351562 4.421875 0 3.546875 0 L 0.703125 0 L 0.703125 -0.234375 C 1.390625 -0.234375 1.882812 -0.4375 2.1875 -0.84375 C 2.5 -1.257812 2.691406 -1.929688 2.765625 -2.859375 C 2.847656 -3.796875 2.890625 -5.035156 2.890625 -6.578125 L 2.890625 -17.109375 C 2.890625 -18.671875 2.847656 -19.910156 2.765625 -20.828125 C 2.691406 -21.753906 2.5 -22.421875 2.1875 -22.828125 C 1.882812 -23.242188 1.390625 -23.453125 0.703125 -23.453125 Z M 4.90625 -23.171875 L 4.90625 -0.609375 C 5.632812 -0.359375 6.320312 -0.171875 6.96875 -0.046875 C 7.613281 0.078125 8.367188 0.140625 9.234375 0.140625 C 10.703125 0.140625 11.972656 -0.113281 13.046875 -0.625 C 14.117188 -1.132812 14.945312 -1.863281 15.53125 -2.8125 C 16.125 -3.757812 16.421875 -4.890625 16.421875 -6.203125 C 16.421875 -6.910156 16.320312 -7.609375 16.125 -8.296875 C 15.925781 -8.984375 15.628906 -9.609375 15.234375 -10.171875 C 14.847656 -10.742188 14.367188 -11.195312 13.796875 -11.53125 C 13.234375 -11.863281 12.582031 -12.03125 11.84375 -12.03125 C 11.175781 -12.03125 10.550781 -11.910156 9.96875 -11.671875 C 9.382812 -11.441406 8.835938 -11.207031 8.328125 -10.96875 C 7.816406 -10.726562 7.320312 -10.609375 6.84375 -10.609375 C 6.632812 -10.609375 6.441406 -10.671875 6.265625 -10.796875 C 6.097656 -10.921875 6.015625 -11.128906 6.015625 -11.421875 C 6.015625 -11.941406 6.226562 -12.398438 6.65625 -12.796875 C 7.082031 -13.191406 7.632812 -13.5625 8.3125 -13.90625 C 8.988281 -14.25 9.707031 -14.597656 10.46875 -14.953125 C 11.226562 -15.304688 11.945312 -15.703125 12.625 -16.140625 C 13.300781 -16.585938 13.851562 -17.101562 14.28125 -17.6875 C 14.707031 -18.28125 14.921875 -18.96875 14.921875 -19.75 C 14.921875 -20.726562 14.644531 -21.519531 14.09375 -22.125 C 13.539062 -22.726562 12.828125 -23.160156 11.953125 -23.421875 C 11.078125 -23.691406 10.15625 -23.828125 9.1875 -23.828125 C 8.414062 -23.828125 7.679688 -23.769531 6.984375 -23.65625 C 6.296875 -23.550781 5.601562 -23.390625 4.90625 -23.171875 Z M 4.90625 -23.171875 "/></g></g></g><g fill="#000000" fill-opacity="1"><g transform="translate(145.050221, 34.282889)"><g><path d="M 0 -23.453125 L 0 -23.6875 L 6.578125 -23.6875 L 6.578125 -23.453125 L 6.0625 -23.453125 C 5.726562 -23.453125 5.429688 -23.359375 5.171875 -23.171875 C 4.910156 -22.992188 4.78125 -22.664062 4.78125 -22.1875 C 4.78125 -21.925781 4.882812 -21.519531 5.09375 -20.96875 C 5.3125 -20.425781 5.601562 -19.800781 5.96875 -19.09375 C 6.332031 -18.382812 6.726562 -17.628906 7.15625 -16.828125 C 7.59375 -16.035156 8.03125 -15.242188 8.46875 -14.453125 C 8.90625 -13.671875 9.316406 -12.9375 9.703125 -12.25 C 10.085938 -11.570312 10.398438 -10.992188 10.640625 -10.515625 C 10.972656 -11.128906 11.375 -11.878906 11.84375 -12.765625 C 12.3125 -13.648438 12.800781 -14.582031 13.3125 -15.5625 C 13.820312 -16.539062 14.300781 -17.488281 14.75 -18.40625 C 15.195312 -19.320312 15.554688 -20.128906 15.828125 -20.828125 C 16.109375 -21.535156 16.25 -22.046875 16.25 -22.359375 C 16.25 -22.785156 16.109375 -23.070312 15.828125 -23.21875 C 15.554688 -23.375 15.253906 -23.453125 14.921875 -23.453125 L 14.3125 -23.453125 L 14.3125 -23.6875 L 19.375 -23.6875 L 19.375 -23.453125 C 18.769531 -23.453125 18.265625 -23.242188 17.859375 -22.828125 C 17.460938 -22.421875 17.039062 -21.78125 16.59375 -20.90625 C 16.15625 -20.039062 15.578125 -18.921875 14.859375 -17.546875 C 14.367188 -16.628906 13.851562 -15.6875 13.3125 -14.71875 C 12.769531 -13.757812 12.265625 -12.863281 11.796875 -12.03125 C 11.335938 -11.207031 10.972656 -10.535156 10.703125 -10.015625 L 10.703125 -6.578125 C 10.703125 -5.035156 10.738281 -3.796875 10.8125 -2.859375 C 10.894531 -1.929688 11.09375 -1.257812 11.40625 -0.84375 C 11.71875 -0.4375 12.210938 -0.234375 12.890625 -0.234375 L 12.890625 0 L 6.484375 0 L 6.484375 -0.234375 C 7.171875 -0.234375 7.664062 -0.4375 7.96875 -0.84375 C 8.28125 -1.257812 8.472656 -1.929688 8.546875 -2.859375 C 8.628906 -3.796875 8.671875 -5.035156 8.671875 -6.578125 L 8.671875 -10.015625 C 8.398438 -10.535156 8.03125 -11.207031 7.5625 -12.03125 C 7.101562 -12.863281 6.601562 -13.757812 6.0625 -14.71875 C 5.53125 -15.6875 5.019531 -16.628906 4.53125 -17.546875 C 3.8125 -18.921875 3.226562 -20.039062 2.78125 -20.90625 C 2.332031 -21.78125 1.90625 -22.421875 1.5 -22.828125 C 1.101562 -23.242188 0.601562 -23.453125 0 -23.453125 Z M 0 -23.453125 "/></g></g></g><g fill="#000000" fill-opacity="1"><g transform="translate(166.792363, 34.282889)"><g/></g></g><g fill="#000000" fill-opacity="1"><g transform="translate(177.450275, 34.282889)"><g><path d="M 15.328125 -21.4375 C 15.328125 -21.875 15.253906 -22.3125 15.109375 -22.75 C 14.972656 -23.1875 14.769531 -23.5 14.5 -23.6875 L 16.84375 -23.6875 C 17.0625 -23.476562 17.234375 -23.164062 17.359375 -22.75 C 17.484375 -22.34375 17.546875 -21.921875 17.546875 -21.484375 C 17.546875 -20.441406 17.34375 -19.519531 16.9375 -18.71875 C 16.53125 -17.925781 15.984375 -17.234375 15.296875 -16.640625 C 14.609375 -16.046875 13.851562 -15.53125 13.03125 -15.09375 C 12.21875 -14.664062 11.40625 -14.289062 10.59375 -13.96875 C 9.78125 -13.65625 9.03125 -13.378906 8.34375 -13.140625 C 7.65625 -12.910156 7.109375 -12.691406 6.703125 -12.484375 C 6.296875 -12.273438 6.09375 -12.0625 6.09375 -11.84375 C 6.09375 -11.570312 6.238281 -11.359375 6.53125 -11.203125 C 6.832031 -11.054688 7.234375 -10.914062 7.734375 -10.78125 C 8.234375 -10.65625 8.769531 -10.484375 9.34375 -10.265625 C 9.914062 -10.054688 10.488281 -9.753906 11.0625 -9.359375 C 11.644531 -8.960938 12.164062 -8.425781 12.625 -7.75 C 13.175781 -6.925781 13.734375 -6.070312 14.296875 -5.1875 C 14.859375 -4.300781 15.429688 -3.488281 16.015625 -2.75 C 16.609375 -2.007812 17.210938 -1.40625 17.828125 -0.9375 C 18.453125 -0.46875 19.101562 -0.234375 19.78125 -0.234375 L 19.78125 0 L 16.15625 0 C 15.882812 0 15.617188 -0.109375 15.359375 -0.328125 C 15.097656 -0.546875 14.773438 -0.921875 14.390625 -1.453125 C 14.015625 -1.984375 13.53125 -2.707031 12.9375 -3.625 C 12.351562 -4.539062 11.59375 -5.703125 10.65625 -7.109375 C 10.132812 -7.898438 9.632812 -8.523438 9.15625 -8.984375 C 8.675781 -9.453125 8.234375 -9.820312 7.828125 -10.09375 C 7.421875 -10.363281 7.070312 -10.578125 6.78125 -10.734375 C 6.488281 -10.890625 6.257812 -11.046875 6.09375 -11.203125 C 5.925781 -11.359375 5.84375 -11.570312 5.84375 -11.84375 C 5.84375 -12.144531 6.015625 -12.425781 6.359375 -12.6875 C 6.703125 -12.957031 7.15625 -13.226562 7.71875 -13.5 C 8.289062 -13.78125 8.910156 -14.085938 9.578125 -14.421875 C 10.253906 -14.753906 10.925781 -15.128906 11.59375 -15.546875 C 12.269531 -15.960938 12.890625 -16.445312 13.453125 -17 C 14.023438 -17.5625 14.476562 -18.203125 14.8125 -18.921875 C 15.15625 -19.648438 15.328125 -20.488281 15.328125 -21.4375 Z M 0.703125 0 L 0.703125 -0.234375 C 1.390625 -0.234375 1.882812 -0.4375 2.1875 -0.84375 C 2.5 -1.257812 2.691406 -1.929688 2.765625 -2.859375 C 2.847656 -3.796875 2.890625 -5.035156 2.890625 -6.578125 L 2.890625 -17.109375 C 2.890625 -18.671875 2.847656 -19.910156 2.765625 -20.828125 C 2.691406 -21.753906 2.5 -22.421875 2.1875 -22.828125 C 1.882812 -23.242188 1.390625 -23.453125 0.703125 -23.453125 L 0.703125 -23.6875 L 7.078125 -23.6875 L 7.078125 -23.453125 C 6.398438 -23.453125 5.90625 -23.242188 5.59375 -22.828125 C 5.289062 -22.421875 5.097656 -21.753906 5.015625 -20.828125 C 4.941406 -19.910156 4.90625 -18.671875 4.90625 -17.109375 L 4.90625 -6.578125 C 4.90625 -5.035156 4.941406 -3.796875 5.015625 -2.859375 C 5.097656 -1.929688 5.289062 -1.257812 5.59375 -0.84375 C 5.90625 -0.4375 6.398438 -0.234375 7.078125 -0.234375 L 7.078125 0 Z M 0.703125 0 "/></g></g></g><g fill="#000000" fill-opacity="1"><g transform="translate(199.831889, 34.282889)"><g><path d="M 0.703125 -4.140625 C 0.703125 -5.117188 0.929688 -6 1.390625 -6.78125 C 1.847656 -7.5625 2.4375 -8.269531 3.15625 -8.90625 C 3.875 -9.550781 4.632812 -10.140625 5.4375 -10.671875 C 6.25 -11.203125 7.015625 -11.691406 7.734375 -12.140625 C 8.453125 -12.585938 9.039062 -13.015625 9.5 -13.421875 C 9.957031 -13.835938 10.1875 -14.25 10.1875 -14.65625 C 10.1875 -14.882812 10.128906 -15.046875 10.015625 -15.140625 C 9.910156 -15.242188 9.773438 -15.296875 9.609375 -15.296875 C 9.328125 -15.296875 9.0625 -15.171875 8.8125 -14.921875 C 8.570312 -14.671875 8.332031 -14.382812 8.09375 -14.0625 C 7.863281 -13.738281 7.609375 -13.445312 7.328125 -13.1875 C 7.054688 -12.9375 6.753906 -12.8125 6.421875 -12.8125 C 6.085938 -12.8125 5.882812 -12.945312 5.8125 -13.21875 C 5.738281 -13.488281 5.757812 -13.773438 5.875 -14.078125 C 6.238281 -15.015625 6.566406 -15.890625 6.859375 -16.703125 C 7.160156 -17.523438 7.457031 -18.316406 7.75 -19.078125 C 8.050781 -19.847656 8.351562 -20.640625 8.65625 -21.453125 C 8.96875 -22.273438 9.3125 -23.175781 9.6875 -24.15625 L 9.921875 -24.15625 L 17.5 -4.140625 C 18.019531 -2.847656 18.507812 -1.875 18.96875 -1.21875 C 19.425781 -0.5625 20.019531 -0.234375 20.75 -0.234375 L 20.75 0 L 12.984375 0 L 12.984375 -0.234375 C 13.816406 -0.234375 14.453125 -0.34375 14.890625 -0.5625 C 15.328125 -0.789062 15.609375 -1.097656 15.734375 -1.484375 C 15.859375 -1.878906 15.875 -2.335938 15.78125 -2.859375 C 15.6875 -3.378906 15.523438 -3.941406 15.296875 -4.546875 L 12.359375 -12.296875 C 12.453125 -11.535156 12.5 -10.585938 12.5 -9.453125 C 12.5 -7.535156 12.203125 -5.828125 11.609375 -4.328125 C 11.023438 -2.828125 10.175781 -1.648438 9.0625 -0.796875 C 7.945312 0.046875 6.597656 0.46875 5.015625 0.46875 C 4.097656 0.46875 3.320312 0.253906 2.6875 -0.171875 C 2.050781 -0.597656 1.5625 -1.160156 1.21875 -1.859375 C 0.875 -2.554688 0.703125 -3.316406 0.703125 -4.140625 Z M 2.71875 -4.59375 C 2.71875 -3.488281 3.050781 -2.554688 3.71875 -1.796875 C 4.382812 -1.035156 5.289062 -0.65625 6.4375 -0.65625 C 7.4375 -0.65625 8.296875 -0.925781 9.015625 -1.46875 C 9.742188 -2.007812 10.347656 -2.710938 10.828125 -3.578125 C 11.316406 -4.441406 11.675781 -5.382812 11.90625 -6.40625 C 12.144531 -7.4375 12.265625 -8.4375 12.265625 -9.40625 C 12.265625 -10.289062 12.238281 -11.078125 12.1875 -11.765625 C 12.132812 -12.460938 11.992188 -13.160156 11.765625 -13.859375 L 8.90625 -21.40625 L 6.1875 -14.171875 C 6.03125 -13.753906 5.984375 -13.460938 6.046875 -13.296875 C 6.117188 -13.128906 6.25 -13.046875 6.4375 -13.046875 C 6.707031 -13.046875 6.96875 -13.171875 7.21875 -13.421875 C 7.476562 -13.679688 7.734375 -13.972656 7.984375 -14.296875 C 8.234375 -14.617188 8.492188 -14.90625 8.765625 -15.15625 C 9.046875 -15.414062 9.347656 -15.546875 9.671875 -15.546875 C 9.890625 -15.546875 10.070312 -15.46875 10.21875 -15.3125 C 10.375 -15.164062 10.453125 -14.929688 10.453125 -14.609375 C 10.453125 -14.085938 10.265625 -13.609375 9.890625 -13.171875 C 9.515625 -12.742188 9.035156 -12.320312 8.453125 -11.90625 C 7.867188 -11.5 7.242188 -11.066406 6.578125 -10.609375 C 5.921875 -10.148438 5.300781 -9.640625 4.71875 -9.078125 C 4.132812 -8.523438 3.65625 -7.882812 3.28125 -7.15625 C 2.90625 -6.425781 2.71875 -5.570312 2.71875 -4.59375 Z M 2.71875 -4.59375 "/></g></g></g><g fill="#000000" fill-opacity="1"><g transform="translate(222.947729, 34.282889)"><g><path d="M 0.703125 -23.6875 L 17.265625 -23.6875 L 17.265625 -20.484375 L 17.03125 -20.484375 C 17.03125 -20.515625 17.035156 -20.523438 17.046875 -20.515625 C 17.054688 -20.515625 17.0625 -20.535156 17.0625 -20.578125 C 17.0625 -21.117188 16.753906 -21.601562 16.140625 -22.03125 C 15.535156 -22.457031 14.695312 -22.800781 13.625 -23.0625 C 12.5625 -23.320312 11.351562 -23.453125 10 -23.453125 L 10 -6.578125 C 10 -5.035156 10.019531 -3.796875 10.0625 -2.859375 C 10.113281 -1.929688 10.273438 -1.257812 10.546875 -0.84375 C 10.828125 -0.4375 11.304688 -0.234375 11.984375 -0.234375 L 11.984375 0 L 5.796875 0 L 5.796875 -0.234375 C 6.484375 -0.234375 6.976562 -0.4375 7.28125 -0.84375 C 7.59375 -1.257812 7.785156 -1.929688 7.859375 -2.859375 C 7.941406 -3.796875 7.984375 -5.035156 7.984375 -6.578125 L 7.984375 -23.453125 C 6.628906 -23.453125 5.414062 -23.320312 4.34375 -23.0625 C 3.28125 -22.800781 2.441406 -22.457031 1.828125 -22.03125 C 1.222656 -21.601562 0.921875 -21.117188 0.921875 -20.578125 C 0.921875 -20.535156 0.925781 -20.515625 0.9375 -20.515625 C 0.945312 -20.523438 0.953125 -20.515625 0.953125 -20.484375 L 0.703125 -20.484375 Z M 0.703125 -23.6875 "/></g></g></g><g fill="#000000" fill-opacity="1"><g transform="translate(37.075541, 49.308163)"><g><path d="M 5.765625 -3.75 C 6.242188 -3.644531 6.613281 -3.4375 6.875 -3.125 C 7.132812 -2.820312 7.265625 -2.425781 7.265625 -1.9375 C 7.265625 -1.320312 7.03125 -0.84375 6.5625 -0.5 C 6.101562 -0.164062 5.425781 0 4.53125 0 L 1.1875 0 L 1.1875 -7.265625 L 4.328125 -7.265625 C 5.128906 -7.265625 5.753906 -7.101562 6.203125 -6.78125 C 6.648438 -6.457031 6.875 -6 6.875 -5.40625 C 6.875 -5 6.773438 -4.65625 6.578125 -4.375 C 6.378906 -4.09375 6.109375 -3.882812 5.765625 -3.75 Z M 1.953125 -6.640625 L 1.953125 -4 L 4.265625 -4 C 4.859375 -4 5.3125 -4.109375 5.625 -4.328125 C 5.945312 -4.554688 6.109375 -4.882812 6.109375 -5.3125 C 6.109375 -5.75 5.945312 -6.078125 5.625 -6.296875 C 5.3125 -6.523438 4.859375 -6.640625 4.265625 -6.640625 Z M 4.515625 -0.640625 C 5.171875 -0.640625 5.664062 -0.75 6 -0.96875 C 6.332031 -1.1875 6.5 -1.53125 6.5 -2 C 6.5 -2.90625 5.835938 -3.359375 4.515625 -3.359375 L 1.953125 -3.359375 L 1.953125 -0.640625 Z M 4.515625 -0.640625 "/></g></g></g><g fill="#000000" fill-opacity="1"><g transform="translate(48.228613, 49.308163)"><g><path d="M 5.75 -1.9375 L 1.6875 -1.9375 L 0.828125 0 L 0.015625 0 L 3.34375 -7.265625 L 4.109375 -7.265625 L 7.421875 0 L 6.625 0 Z M 5.46875 -2.5625 L 3.71875 -6.46875 L 1.96875 -2.5625 Z M 5.46875 -2.5625 "/></g></g></g><g fill="#000000" fill-opacity="1"><g transform="translate(58.99717, 49.308163)"><g><path d="M 1.1875 -7.265625 L 1.953125 -7.265625 L 1.953125 -0.671875 L 6.03125 -0.671875 L 6.03125 0 L 1.1875 0 Z M 1.1875 -7.265625 "/></g></g></g><g fill="#000000" fill-opacity="1"><g transform="translate(68.435511, 49.308163)"><g><path d="M 5.75 -1.9375 L 1.6875 -1.9375 L 0.828125 0 L 0.015625 0 L 3.34375 -7.265625 L 4.109375 -7.265625 L 7.421875 0 L 6.625 0 Z M 5.46875 -2.5625 L 3.71875 -6.46875 L 1.96875 -2.5625 Z M 5.46875 -2.5625 "/></g></g></g><g fill="#000000" fill-opacity="1"><g transform="translate(79.204068, 49.308163)"><g><path d="M 3.671875 -2.515625 L 3.671875 0 L 2.921875 0 L 2.921875 -2.515625 L 0.015625 -7.265625 L 0.828125 -7.265625 L 3.328125 -3.1875 L 5.8125 -7.265625 L 6.59375 -7.265625 Z M 3.671875 -2.515625 "/></g></g></g><g fill="#000000" fill-opacity="1"><g transform="translate(89.120449, 49.308163)"><g><path d="M 5.75 -1.9375 L 1.6875 -1.9375 L 0.828125 0 L 0.015625 0 L 3.34375 -7.265625 L 4.109375 -7.265625 L 7.421875 0 L 6.625 0 Z M 5.46875 -2.5625 L 3.71875 -6.46875 L 1.96875 -2.5625 Z M 5.46875 -2.5625 "/></g></g></g><g fill="#000000" fill-opacity="1"><g transform="translate(99.889006, 49.308163)"><g><path d="M 6.3125 -3.640625 L 7.046875 -3.640625 L 7.046875 -0.859375 C 6.703125 -0.566406 6.296875 -0.335938 5.828125 -0.171875 C 5.367188 -0.015625 4.882812 0.0625 4.375 0.0625 C 3.644531 0.0625 2.988281 -0.09375 2.40625 -0.40625 C 1.820312 -0.726562 1.363281 -1.171875 1.03125 -1.734375 C 0.707031 -2.304688 0.546875 -2.941406 0.546875 -3.640625 C 0.546875 -4.335938 0.707031 -4.96875 1.03125 -5.53125 C 1.363281 -6.09375 1.820312 -6.53125 2.40625 -6.84375 C 2.988281 -7.164062 3.648438 -7.328125 4.390625 -7.328125 C 4.941406 -7.328125 5.445312 -7.238281 5.90625 -7.0625 C 6.375 -6.894531 6.769531 -6.632812 7.09375 -6.28125 L 6.609375 -5.796875 C 6.035156 -6.367188 5.304688 -6.65625 4.421875 -6.65625 C 3.828125 -6.65625 3.289062 -6.523438 2.8125 -6.265625 C 2.34375 -6.003906 1.972656 -5.640625 1.703125 -5.171875 C 1.429688 -4.710938 1.296875 -4.203125 1.296875 -3.640625 C 1.296875 -3.066406 1.429688 -2.550781 1.703125 -2.09375 C 1.972656 -1.632812 2.34375 -1.273438 2.8125 -1.015625 C 3.28125 -0.753906 3.8125 -0.625 4.40625 -0.625 C 5.15625 -0.625 5.789062 -0.8125 6.3125 -1.1875 Z M 6.3125 -3.640625 "/></g></g></g><g fill="#000000" fill-opacity="1"><g transform="translate(111.239536, 49.308163)"><g><path d="M 6.328125 -0.671875 L 6.328125 0 L 1.1875 0 L 1.1875 -7.265625 L 6.171875 -7.265625 L 6.171875 -6.609375 L 1.953125 -6.609375 L 1.953125 -4.015625 L 5.71875 -4.015625 L 5.71875 -3.359375 L 1.953125 -3.359375 L 1.953125 -0.671875 Z M 6.328125 -0.671875 "/></g></g></g><g fill="#000000" fill-opacity="1"><g transform="translate(121.50926, 49.308163)"><g/></g></g><g fill="#000000" fill-opacity="1"><g transform="translate(127.549302, 49.308163)"><g><path d="M 3.1875 0.0625 C 2.644531 0.0625 2.125 -0.0195312 1.625 -0.1875 C 1.132812 -0.363281 0.753906 -0.597656 0.484375 -0.890625 L 0.796875 -1.46875 C 1.054688 -1.207031 1.40625 -0.992188 1.84375 -0.828125 C 2.28125 -0.671875 2.726562 -0.59375 3.1875 -0.59375 C 3.84375 -0.59375 4.332031 -0.710938 4.65625 -0.953125 C 4.976562 -1.191406 5.140625 -1.5 5.140625 -1.875 C 5.140625 -2.164062 5.050781 -2.398438 4.875 -2.578125 C 4.695312 -2.753906 4.476562 -2.882812 4.21875 -2.96875 C 3.96875 -3.0625 3.613281 -3.164062 3.15625 -3.28125 C 2.613281 -3.414062 2.175781 -3.546875 1.84375 -3.671875 C 1.519531 -3.804688 1.242188 -4.003906 1.015625 -4.265625 C 0.785156 -4.535156 0.671875 -4.894531 0.671875 -5.34375 C 0.671875 -5.707031 0.765625 -6.039062 0.953125 -6.34375 C 1.148438 -6.644531 1.445312 -6.882812 1.84375 -7.0625 C 2.25 -7.238281 2.75 -7.328125 3.34375 -7.328125 C 3.757812 -7.328125 4.164062 -7.269531 4.5625 -7.15625 C 4.96875 -7.050781 5.3125 -6.894531 5.59375 -6.6875 L 5.34375 -6.078125 C 5.039062 -6.273438 4.710938 -6.425781 4.359375 -6.53125 C 4.015625 -6.632812 3.675781 -6.6875 3.34375 -6.6875 C 2.707031 -6.6875 2.226562 -6.5625 1.90625 -6.3125 C 1.582031 -6.0625 1.421875 -5.742188 1.421875 -5.359375 C 1.421875 -5.066406 1.507812 -4.832031 1.6875 -4.65625 C 1.863281 -4.476562 2.082031 -4.34375 2.34375 -4.25 C 2.613281 -4.15625 2.972656 -4.054688 3.421875 -3.953125 C 3.960938 -3.816406 4.394531 -3.679688 4.71875 -3.546875 C 5.050781 -3.421875 5.332031 -3.226562 5.5625 -2.96875 C 5.789062 -2.71875 5.90625 -2.367188 5.90625 -1.921875 C 5.90625 -1.554688 5.804688 -1.222656 5.609375 -0.921875 C 5.410156 -0.617188 5.101562 -0.378906 4.6875 -0.203125 C 4.28125 -0.0234375 3.78125 0.0625 3.1875 0.0625 Z M 3.1875 0.0625 "/></g></g></g><g fill="#000000" fill-opacity="1"><g transform="translate(137.257838, 49.308163)"><g><path d="M 3.90625 -7.265625 C 4.832031 -7.265625 5.554688 -7.039062 6.078125 -6.59375 C 6.609375 -6.15625 6.875 -5.550781 6.875 -4.78125 C 6.875 -4 6.609375 -3.390625 6.078125 -2.953125 C 5.554688 -2.515625 4.832031 -2.296875 3.90625 -2.296875 L 1.953125 -2.296875 L 1.953125 0 L 1.1875 0 L 1.1875 -7.265625 Z M 3.890625 -2.96875 C 4.609375 -2.96875 5.15625 -3.125 5.53125 -3.4375 C 5.914062 -3.757812 6.109375 -4.207031 6.109375 -4.78125 C 6.109375 -5.363281 5.914062 -5.8125 5.53125 -6.125 C 5.15625 -6.445312 4.609375 -6.609375 3.890625 -6.609375 L 1.953125 -6.609375 L 1.953125 -2.96875 Z M 3.890625 -2.96875 "/></g></g></g><g fill="#000000" fill-opacity="1"><g transform="translate(148.036786, 49.308163)"><g><path d="M 6.328125 -0.671875 L 6.328125 0 L 1.1875 0 L 1.1875 -7.265625 L 6.171875 -7.265625 L 6.171875 -6.609375 L 1.953125 -6.609375 L 1.953125 -4.015625 L 5.71875 -4.015625 L 5.71875 -3.359375 L 1.953125 -3.359375 L 1.953125 -0.671875 Z M 6.328125 -0.671875 "/></g></g></g><g fill="#000000" fill-opacity="1"><g transform="translate(158.30651, 49.308163)"><g><path d="M 4.34375 0.0625 C 3.625 0.0625 2.972656 -0.09375 2.390625 -0.40625 C 1.816406 -0.726562 1.363281 -1.171875 1.03125 -1.734375 C 0.707031 -2.304688 0.546875 -2.941406 0.546875 -3.640625 C 0.546875 -4.335938 0.707031 -4.96875 1.03125 -5.53125 C 1.363281 -6.09375 1.816406 -6.53125 2.390625 -6.84375 C 2.972656 -7.164062 3.628906 -7.328125 4.359375 -7.328125 C 4.898438 -7.328125 5.394531 -7.238281 5.84375 -7.0625 C 6.300781 -6.882812 6.691406 -6.625 7.015625 -6.28125 L 6.53125 -5.78125 C 5.957031 -6.363281 5.238281 -6.65625 4.375 -6.65625 C 3.800781 -6.65625 3.273438 -6.519531 2.796875 -6.25 C 2.328125 -5.988281 1.957031 -5.628906 1.6875 -5.171875 C 1.425781 -4.710938 1.296875 -4.203125 1.296875 -3.640625 C 1.296875 -3.066406 1.425781 -2.550781 1.6875 -2.09375 C 1.957031 -1.632812 2.328125 -1.273438 2.796875 -1.015625 C 3.273438 -0.753906 3.800781 -0.625 4.375 -0.625 C 5.25 -0.625 5.96875 -0.914062 6.53125 -1.5 L 7.015625 -1.015625 C 6.691406 -0.660156 6.300781 -0.390625 5.84375 -0.203125 C 5.382812 -0.0234375 4.882812 0.0625 4.34375 0.0625 Z M 4.34375 0.0625 "/></g></g></g><g fill="#000000" fill-opacity="1"><g transform="translate(169.095844, 49.308163)"><g><path d="M 1.1875 -7.265625 L 1.953125 -7.265625 L 1.953125 0 L 1.1875 0 Z M 1.1875 -7.265625 "/></g></g></g><g fill="#000000" fill-opacity="1"><g transform="translate(175.551585, 49.308163)"><g><path d="M 5.75 -1.9375 L 1.6875 -1.9375 L 0.828125 0 L 0.015625 0 L 3.34375 -7.265625 L 4.109375 -7.265625 L 7.421875 0 L 6.625 0 Z M 5.46875 -2.5625 L 3.71875 -6.46875 L 1.96875 -2.5625 Z M 5.46875 -2.5625 "/></g></g></g><g fill="#000000" fill-opacity="1"><g transform="translate(186.320146, 49.308163)"><g><path d="M 1.1875 -7.265625 L 1.953125 -7.265625 L 1.953125 -0.671875 L 6.03125 -0.671875 L 6.03125 0 L 1.1875 0 Z M 1.1875 -7.265625 "/></g></g></g><g fill="#000000" fill-opacity="1"><g transform="translate(195.758491, 49.308163)"><g><path d="M 1.1875 -7.265625 L 1.953125 -7.265625 L 1.953125 0 L 1.1875 0 Z M 1.1875 -7.265625 "/></g></g></g><g fill="#000000" fill-opacity="1"><g transform="translate(202.214232, 49.308163)"><g><path d="M 3.1875 0.0625 C 2.644531 0.0625 2.125 -0.0195312 1.625 -0.1875 C 1.132812 -0.363281 0.753906 -0.597656 0.484375 -0.890625 L 0.796875 -1.46875 C 1.054688 -1.207031 1.40625 -0.992188 1.84375 -0.828125 C 2.28125 -0.671875 2.726562 -0.59375 3.1875 -0.59375 C 3.84375 -0.59375 4.332031 -0.710938 4.65625 -0.953125 C 4.976562 -1.191406 5.140625 -1.5 5.140625 -1.875 C 5.140625 -2.164062 5.050781 -2.398438 4.875 -2.578125 C 4.695312 -2.753906 4.476562 -2.882812 4.21875 -2.96875 C 3.96875 -3.0625 3.613281 -3.164062 3.15625 -3.28125 C 2.613281 -3.414062 2.175781 -3.546875 1.84375 -3.671875 C 1.519531 -3.804688 1.242188 -4.003906 1.015625 -4.265625 C 0.785156 -4.535156 0.671875 -4.894531 0.671875 -5.34375 C 0.671875 -5.707031 0.765625 -6.039062 0.953125 -6.34375 C 1.148438 -6.644531 1.445312 -6.882812 1.84375 -7.0625 C 2.25 -7.238281 2.75 -7.328125 3.34375 -7.328125 C 3.757812 -7.328125 4.164062 -7.269531 4.5625 -7.15625 C 4.96875 -7.050781 5.3125 -6.894531 5.59375 -6.6875 L 5.34375 -6.078125 C 5.039062 -6.273438 4.710938 -6.425781 4.359375 -6.53125 C 4.015625 -6.632812 3.675781 -6.6875 3.34375 -6.6875 C 2.707031 -6.6875 2.226562 -6.5625 1.90625 -6.3125 C 1.582031 -6.0625 1.421875 -5.742188 1.421875 -5.359375 C 1.421875 -5.066406 1.507812 -4.832031 1.6875 -4.65625 C 1.863281 -4.476562 2.082031 -4.34375 2.34375 -4.25 C 2.613281 -4.15625 2.972656 -4.054688 3.421875 -3.953125 C 3.960938 -3.816406 4.394531 -3.679688 4.71875 -3.546875 C 5.050781 -3.421875 5.332031 -3.226562 5.5625 -2.96875 C 5.789062 -2.71875 5.90625 -2.367188 5.90625 -1.921875 C 5.90625 -1.554688 5.804688 -1.222656 5.609375 -0.921875 C 5.410156 -0.617188 5.101562 -0.378906 4.6875 -0.203125 C 4.28125 -0.0234375 3.78125 0.0625 3.1875 0.0625 Z M 3.1875 0.0625 "/></g></g></g><g fill="#000000" fill-opacity="1"><g transform="translate(211.922768, 49.308163)"><g><path d="M 2.59375 -6.609375 L 0.046875 -6.609375 L 0.046875 -7.265625 L 5.921875 -7.265625 L 5.921875 -6.609375 L 3.359375 -6.609375 L 3.359375 0 L 2.59375 0 Z M 2.59375 -6.609375 "/></g></g></g></svg>